<svg xmlns="http://www.w3.org/2000/svg" viewBox="0 0 512 512" xml:space="preserve"><path class="st1" d="M107.9 336.9c-10.3 0-19.9-1.8-28.8-5.5s-16.6-8.8-23.3-15.3c-6.6-6.5-11.8-14.2-15.5-22.9s-5.6-18.1-5.6-28.2c0-10.2 1.8-19.6 5.5-28.3 3.7-8.6 8.8-16.2 15.4-22.7s14.3-11.5 23.2-15.1c8.8-3.6 18.4-5.4 28.7-5.4 10.5 0 20.1 1.8 28.9 5.4s16.5 8.6 23.2 15.1c6.6 6.5 11.7 14.1 15.4 22.8s5.5 18.1 5.5 28.4c0 10.1-1.8 19.5-5.5 28.2s-8.8 16.3-15.4 22.8-14.3 11.5-23.1 15.2c-8.7 3.7-18.3 5.5-28.6 5.5m-.4-28.1c8.4 0 15.6-1.8 21.8-5.5 6.1-3.7 11-8.8 14.4-15.4 3.5-6.6 5.2-14.2 5.2-22.9 0-6.5-1-12.5-2.9-17.8-2-5.3-4.8-9.9-8.4-13.7-3.7-3.9-8-6.8-13-8.8s-10.7-3-17-3q-12.3 0-21.6 5.4c-6.2 3.6-11 8.6-14.4 15.1-3.5 6.5-5.2 14.1-5.2 22.9 0 6.5 1 12.5 2.9 17.9q3 8.1 8.4 13.8c3.7 3.9 8 6.8 13 8.9 5.1 2.1 10.7 3.1 16.8 3.1m62.2 36.7L105 280.8l17.9-17.9 64.7 64.7zm34-11V196h30.8v138.5zm100.6 2.2c-9.8 0-18.7-2.2-26.6-6.6s-14.2-10.4-18.7-18q-6.9-11.4-6.9-25.5c0-14.1 2.3-17.9 6.9-25.3 4.6-7.5 10.8-13.4 18.6-17.8q11.7-6.6 26.7-6.6c9.9 0 18.8 2.2 26.7 6.5 7.8 4.3 14.1 10.2 18.6 17.8 4.6 7.5 6.9 16 6.9 25.4s-2.3 17.9-6.9 25.5q-6.9 11.4-18.6 18-11.85 6.6-26.7 6.6m0-27.3c4.3 0 8.1-.9 11.4-2.8s5.8-4.6 7.6-8c1.8-3.5 2.6-7.4 2.6-11.9q0-6.6-2.7-11.7c-1.8-3.3-4.4-6-7.6-7.8-3.2-1.9-7-2.8-11.3-2.8-4.2 0-7.9 1-11.2 2.8-3.3 1.9-5.8 4.5-7.7 7.9-1.8 3.4-2.7 7.3-2.7 11.8q0 6.45 2.7 11.7c1.8 3.5 4.4 6.2 7.7 8 3.3 1.9 7 2.8 11.2 2.8m60.4-86.5V196h117.5v26.9zm43.4 111.6V198h30.8v136.6h-30.8z" style="fill:#0c98f9"/><path d="M46.5 392.5q-3.45 0-6.3-1.2c-1.9-.8-3.6-2-5.1-3.4-1.4-1.5-2.6-3.2-3.3-5.1-.8-2-1.2-4-1.2-6.3s.4-4.3 1.2-6.3c.8-1.9 1.9-3.7 3.3-5.1 1.4-1.5 3.1-2.6 5-3.4q2.85-1.2 6.3-1.2c2.5 0 4.7.4 6.5 1.3 1.9.8 3.5 2 5 3.4l-3 2.9c-1-1.1-2.2-2-3.7-2.6-1.4-.6-3.1-.9-4.9-.9-1.7 0-3.2.3-4.6.9s-2.6 1.4-3.6 2.5-1.8 2.4-2.4 3.8c-.6 1.5-.8 3.1-.8 4.8s.3 3.3.8 4.8c.6 1.5 1.4 2.7 2.4 3.8s2.2 1.9 3.6 2.5 2.9.9 4.6.9c2 0 3.7-.3 5.1-1 1.5-.6 2.7-1.5 3.7-2.6l3 2.9c-1.5 1.5-3.2 2.7-5.1 3.5-1.9.7-4.1 1.1-6.5 1.1m25.3 0q-3.15 0-5.7-1.5c-1.7-1-3-2.3-4-4q-1.5-2.55-1.5-5.7c0-2.1.5-3.9 1.5-5.6s2.3-3 4-4q2.55-1.5 5.7-1.5t5.7 1.5c1.7 1 3.1 2.3 4.1 4s1.5 3.6 1.5 5.6q0 3.15-1.5 5.7c-1 1.7-2.4 3-4.1 4q-2.55 1.5-5.7 1.5m0-3.9q2.1 0 3.6-.9c1.1-.6 1.9-1.5 2.5-2.6s.9-2.3.9-3.8c0-1.4-.3-2.6-.9-3.7s-1.5-1.9-2.5-2.5q-1.5-.9-3.6-.9t-3.6.9c-1.1.6-1.9 1.5-2.5 2.5-.6 1.1-.9 2.3-.9 3.7s.3 2.7.9 3.8 1.4 2 2.5 2.6q1.65.9 3.6.9m15.9 3.5v-21.4h4.1v21.4zm15.3 0v-12.5c0-1.6-.5-3-1.5-4s-2.4-1.6-4-1.6c-1.1 0-2.1.2-2.9.7s-1.5 1.1-2 2c-.5.8-.7 1.8-.7 2.9l-1.7-.9c0-1.6.4-3.1 1.1-4.3q1.05-1.95 3-3c1.3-.7 2.8-1.1 4.4-1.1s3.1.4 4.3 1.2 2.3 1.9 3 3.2 1.1 2.7 1.1 4.2v13.3H103zm9.6 0v-21.4h4.1v21.4zm15.3 0v-12.5c0-1.6-.5-3-1.5-4s-2.4-1.6-4-1.6c-1.1 0-2.1.2-2.9.7s-1.5 1.1-2 2c-.5.8-.7 1.8-.7 2.9l-1.7-.9c0-1.6.4-3.1 1.1-4.3q1.05-1.95 3-3c1.3-.7 2.8-1.1 4.4-1.1s3.1.4 4.3 1.2 2.3 1.9 3 3.2 1.1 2.7 1.1 4.2v13.3h-4.1zm19.6.4c-2.2 0-4.1-.5-5.8-1.5s-3.1-2.3-4.1-4q-1.5-2.55-1.5-5.7t1.5-5.7c1-1.7 2.3-3 4-4q2.55-1.5 5.7-1.5c2 0 3.8.5 5.3 1.4s2.7 2.1 3.6 3.7 1.3 3.4 1.3 5.4v1c0 .3-.1.7-.2 1.2H139v-3.4h16l-1.5 1.3c0-1.4-.3-2.7-.8-3.7s-1.2-1.8-2.2-2.3c-.9-.6-2.1-.8-3.4-.8-1.4 0-2.6.3-3.7.9s-1.9 1.4-2.5 2.5-.9 2.4-.9 3.8q0 2.25.9 3.9c.6 1.1 1.5 2 2.6 2.6q1.65.9 3.9.9 1.8 0 3.3-.6c1-.4 1.9-1 2.6-1.9l2.6 2.7c-1 1.2-2.3 2.1-3.8 2.7-1.3.8-2.9 1.1-4.6 1.1m24.2 0q-3.15 0-5.7-1.5c-1.7-1-3.1-2.3-4-4-1-1.7-1.5-3.6-1.5-5.6q0-3.15 1.5-5.7c1-1.7 2.3-3 4-4q2.55-1.5 5.7-1.5c1.7 0 3.2.3 4.6.9s2.7 1.5 3.7 2.7l-2.7 2.7q-1.05-1.2-2.4-1.8c-1-.4-2-.6-3.2-.6q-2.1 0-3.6.9c-1.1.6-1.9 1.5-2.5 2.5-.6 1.1-.9 2.3-.9 3.7s.3 2.7.9 3.7c.6 1.1 1.4 1.9 2.5 2.6q1.65.9 3.6.9c1.2 0 2.2-.2 3.2-.6s1.8-1 2.5-1.8l2.7 2.7c-1 1.1-2.2 2-3.7 2.7-1.5.8-3 1.1-4.7 1.1m10.1-18.1v-3.7h14.7v3.7zm5.3 17.7v-30.3h4.1v30.3zm22.8.4c-2.2 0-4.1-.5-5.8-1.5s-3.1-2.3-4.1-4q-1.5-2.55-1.5-5.7t1.5-5.7c1-1.7 2.3-3 4-4q2.55-1.5 5.7-1.5c2 0 3.8.5 5.3 1.4s2.7 2.1 3.6 3.7 1.3 3.4 1.3 5.4v1c0 .3-.1.7-.2 1.2h-18.2v-3.4h16l-1.5 1.3c0-1.4-.3-2.7-.8-3.7s-1.2-1.8-2.2-2.3c-.9-.6-2.1-.8-3.4-.8-1.4 0-2.6.3-3.7.9s-1.9 1.4-2.5 2.5-.9 2.4-.9 3.8q0 2.25.9 3.9c.6 1.1 1.5 2 2.6 2.6q1.65.9 3.9.9 1.8 0 3.3-.6c1-.4 1.9-1 2.6-1.9l2.6 2.7c-1 1.2-2.3 2.1-3.8 2.7-1.4.8-3 1.1-4.7 1.1m23.5 0q-3 0-5.4-1.5c-1.6-1-2.8-2.3-3.7-4s-1.4-3.6-1.4-5.7.5-4 1.4-5.7 2.2-3 3.7-4q2.4-1.5 5.4-1.5c1.6 0 3.1.3 4.4 1s2.4 1.6 3.2 2.8 1.3 2.6 1.3 4.1v6.4c-.1 1.5-.5 2.9-1.3 4.1s-1.8 2.1-3.1 2.8c-1.4.9-2.9 1.2-4.5 1.2m.6-3.8q2.1 0 3.6-.9c1-.6 1.8-1.5 2.4-2.6s.9-2.3.9-3.8-.3-2.7-.9-3.8-1.4-1.9-2.4-2.6q-1.5-.9-3.6-.9t-3.6.9c-1 .6-1.8 1.5-2.4 2.6s-.9 2.3-.9 3.8c0 1.4.3 2.7.9 3.8s1.4 2 2.5 2.6c1 .6 2.2.9 3.5.9m10.7 3.4h-4.1v-5.8l.8-5.2-.8-5.2v-16h4.1zm16.1 0v-31.2h4.3v31.2zm3-14.3V374h18.5v3.9h-18.5zm17.4 14.3v-31.2h4.3v31.2zm21 .4c-2.2 0-4.1-.5-5.8-1.5s-3.1-2.3-4.1-4q-1.5-2.55-1.5-5.7t1.5-5.7c1-1.7 2.3-3 4-4q2.55-1.5 5.7-1.5c2 0 3.8.5 5.3 1.4s2.7 2.1 3.6 3.7 1.3 3.4 1.3 5.4v1c0 .3-.1.7-.2 1.2h-18.2v-3.4h16l-1.5 1.3c0-1.4-.3-2.7-.8-3.7s-1.2-1.8-2.2-2.3-2.1-.8-3.4-.8c-1.4 0-2.6.3-3.7.9s-1.9 1.4-2.5 2.5-.9 2.4-.9 3.8q0 2.25.9 3.9c.6 1.1 1.5 2 2.6 2.6q1.65.9 3.9.9 1.8 0 3.3-.6c1-.4 1.9-1 2.6-1.9l2.6 2.7c-1 1.2-2.3 2.1-3.8 2.7-1.4.8-3 1.1-4.7 1.1m23.6 0q-3 0-5.4-1.5c-1.6-1-2.9-2.3-3.8-4s-1.4-3.6-1.4-5.7.5-4 1.4-5.7 2.2-3 3.8-4q2.4-1.5 5.4-1.5c1.6 0 3.1.3 4.4 1s2.3 1.6 3.1 2.8 1.2 2.6 1.3 4.1v6.4c-.1 1.5-.5 2.9-1.3 4.1s-1.8 2.1-3.1 2.8c-1.3.9-2.8 1.2-4.4 1.2m.6-3.8c2 0 3.7-.7 4.9-2 1.2-1.4 1.9-3.1 1.9-5.2 0-1.5-.3-2.8-.8-3.8-.6-1.1-1.4-1.9-2.4-2.6q-1.5-.9-3.6-.9c-2.1 0-2.6.3-3.6.9s-1.9 1.5-2.5 2.6-.9 2.3-.9 3.8c0 1.4.3 2.7.9 3.8s1.4 2 2.5 2.6c1.1.5 2.3.8 3.6.8m6.5 3.4v-5.8l.8-5.2-.8-5.2v-5.2h4.1v21.4zm10.1 0V360h4.1v32.1zm8.1-17.7v-3.7h14.7v3.7zm5.3 17.7v-30.3h4.1v30.3zm13.4 0V360h4.1v32.1zm15.3 0v-12.5c0-1.6-.5-3-1.5-4s-2.4-1.6-4-1.6c-1.1 0-2.1.2-2.9.7s-1.5 1.1-2 2-.7 1.8-.7 2.9l-1.7-.9c0-1.6.4-3.1 1.1-4.3q1.05-1.95 3-3c1.3-.7 2.8-1.1 4.4-1.1s3.1.4 4.3 1.1q1.95 1.05 3 3c.7 1.3 1.1 2.8 1.1 4.5v13.3h-4.1zm19.5.4q-3.15 0-5.7-1.5c-1.7-1-3.1-2.3-4-4-1-1.7-1.5-3.6-1.5-5.6q0-3.15 1.5-5.7c1-1.7 2.3-3 4-4q2.55-1.5 5.7-1.5c1.7 0 3.2.3 4.6.9s2.7 1.5 3.7 2.7l-2.7 2.7q-1.05-1.2-2.4-1.8c-1-.4-2-.6-3.2-.6q-2.1 0-3.6.9c-1.1.6-1.9 1.5-2.5 2.5-.6 1.1-.9 2.3-.9 3.7s.3 2.7.9 3.7c.6 1.1 1.4 1.9 2.5 2.6q1.65.9 3.6.9c1.2 0 2.2-.2 3.2-.6s1.8-1 2.5-1.8l2.7 2.7c-1 1.1-2.2 2-3.7 2.7-1.5.8-3 1.1-4.7 1.1m21.1 0q-3 0-5.4-1.5c-1.6-1-2.9-2.3-3.8-4s-1.4-3.6-1.4-5.7.5-4 1.4-5.7 2.2-3 3.8-4q2.4-1.5 5.4-1.5c1.6 0 3.1.3 4.4 1s2.3 1.6 3.1 2.8 1.2 2.6 1.3 4.1v6.4c-.1 1.5-.5 2.9-1.3 4.1s-1.8 2.1-3.1 2.8c-1.2.9-2.7 1.2-4.4 1.2m.7-3.8c2 0 3.7-.7 4.9-2 1.2-1.4 1.9-3.1 1.9-5.2 0-1.5-.3-2.8-.8-3.8-.6-1.1-1.4-1.9-2.4-2.6q-1.5-.9-3.6-.9c-2.1 0-2.6.3-3.6.9s-1.9 1.5-2.5 2.6-.9 2.3-.9 3.8c0 1.4.3 2.7.9 3.8s1.4 2 2.5 2.6c1 .5 2.2.8 3.6.8m6.5 3.4v-5.8l.8-5.2-.8-5.2v-5.2h4.1v21.4zm10.1 0v-21.4h4.1v21.4zm4.1-12.2-1.5-.7c0-2.7.6-4.9 1.9-6.5s3.1-2.4 5.5-2.4q1.65 0 3 .6c.9.4 1.7 1 2.5 1.9l-2.7 2.7c-.5-.5-1-.8-1.5-1s-1.2-.3-1.9-.3c-1.5 0-2.8.5-3.7 1.4-1.1.9-1.6 2.3-1.6 4.3m23.4 12.6c-2.2 0-4.1-.5-5.8-1.5s-3.1-2.3-4.1-4q-1.5-2.55-1.5-5.7t1.5-5.7c1-1.7 2.3-3 4-4q2.55-1.5 5.7-1.5c2 0 3.8.5 5.3 1.4s2.7 2.1 3.6 3.7 1.3 3.4 1.3 5.4v1c0 .3-.1.7-.2 1.2H462v-3.4h16l-1.5 1.3c0-1.4-.3-2.7-.8-3.7s-1.2-1.8-2.2-2.3-2.1-.8-3.4-.8c-1.4 0-2.6.3-3.7.9s-1.9 1.4-2.5 2.5-.9 2.4-.9 3.8q0 2.25.9 3.9c.6 1.1 1.5 2 2.6 2.6q1.65.9 3.9.9 1.8 0 3.3-.6c1-.4 1.9-1 2.6-1.9l2.6 2.7c-1 1.2-2.3 2.1-3.8 2.7-1.3.8-2.9 1.1-4.6 1.1" style="fill:#fa8d1a"/><path class="st1" d="m261.9 142.2-11.1-9.3v6.8h-29.1v-29h6.8l-9.2-11.1-9.3 11.1h6.8v29h-29.1v-6.8l-11.1 9.3 11.1 9.3v-6.8h29.1v29H210l9.3 11.2 9.2-11.2h-6.8v-29h29.1v6.8z" style="fill:#0c98f9"/><path class="st1" d="m249.4 112.1-14.4 1.3 4.8 4.8-20.5 20.5-20.6-20.5 4.8-4.8-14.4-1.3 1.3 14.4 4.8-4.8 20.6 20.5-20.6 20.6-4.8-4.9-1.3 14.5 14.4-1.3-4.8-4.8 20.6-20.6 20.5 20.6-4.8 4.8 14.4 1.3-1.3-14.5-4.8 4.9-20.5-20.6 20.5-20.5 4.8 4.8z" style="fill:#0c98f9"/><path style="fill:none" d="M0 0h512v512H0z"/></svg>