<svg width="64" height="64" viewBox="0 0 30 30" fill="none" xmlns="http://www.w3.org/2000/svg"><path d="M15.496 4.755 14.78 0H4.25C2.665 0 1.406 1.292 1.406 2.877v19.909a2.83 2.83 0 0 0 2.844 2.85h9.987l7.195-10.894V6.973z" fill="#004283"/><path d="m14.779.006 6.634 6.967h-4.416a2.216 2.216 0 0 1-2.218-2.218z" fill="#0D8EF8"/><path d="M14.524 14.939h-8.5a.654.654 0 0 0-.652.652c0 .359.294.652.653.652h8.5a.654.654 0 0 0 .652-.652.65.65 0 0 0-.653-.652m-8.499-1.958h6.608a.654.654 0 0 0 .652-.652.654.654 0 0 0-.652-.652H6.025a.654.654 0 0 0-.653.652c0 .359.294.652.653.652m6.353 5.284H6.025a.654.654 0 0 0-.653.652c0 .36.294.653.653.653h6.353a.654.654 0 0 0 .652-.653.654.654 0 0 0-.652-.652" fill="#fff"/><path d="M21.413 13.444A8.318 8.318 0 0 1 20.252 30a8.3 8.3 0 0 1-7.313-4.358 8.318 8.318 0 0 1 7.313-12.283 10 10 0 0 1 1.16.085" fill="#FF8500"/><path d="M20.715 16.869a.66.66 0 0 0-.476-.209.66.66 0 0 0-.477.209l-3.822 4.103a.65.65 0 0 0 .033.92.65.65 0 0 0 .443.176.68.68 0 0 0 .49-.209l2.7-2.89v7.124c0 .358.293.652.652.652a.654.654 0 0 0 .652-.652v-7.124l2.682 2.89a.65.65 0 1 0 .952-.887z" fill="#004283"/></svg>